<svg width="22" height="22" viewBox="0 0 22 22" fill="none" xmlns="http://www.w3.org/2000/svg">
<path d="M11 0C4.939 0 0 4.939 0 11C0 17.061 4.939 22 11 22C17.061 22 22 17.061 22 11C22 4.939 17.061 0 11 0ZM10.175 10.362C10.175 9.911 10.549 9.537 11 9.537C11.451 9.537 11.825 9.911 11.825 10.362V12.012V14.762C11.825 15.213 11.451 15.587 11 15.587C10.549 15.587 10.175 15.213 10.175 14.762V10.362ZM12.012 7.48C11.957 7.623 11.88 7.733 11.781 7.843C11.671 7.942 11.55 8.019 11.418 8.074C11.286 8.129 11.143 8.162 11 8.162C10.857 8.162 10.714 8.129 10.582 8.074C10.45 8.019 10.329 7.942 10.219 7.843C10.12 7.733 10.043 7.623 9.988 7.48C9.933 7.348 9.9 7.205 9.9 7.062C9.9 6.919 9.933 6.776 9.988 6.644C10.043 6.512 10.12 6.391 10.219 6.281C10.329 6.182 10.45 6.105 10.582 6.05C10.846 5.94 11.154 5.94 11.418 6.05C11.55 6.105 11.671 6.182 11.781 6.281C11.88 6.391 11.957 6.512 12.012 6.644C12.067 6.776 12.1 6.919 12.1 7.062C12.1 7.205 12.067 7.348 12.012 7.48Z" fill="#52525B"/>
</svg>
