<svg width="22" height="22" viewBox="0 0 22 22" fill="none" xmlns="http://www.w3.org/2000/svg">
<path fill-rule="evenodd" clip-rule="evenodd" d="M10.0891 2.71086C10.3725 2.57204 10.6839 2.5 10.9993 2.5C11.3147 2.5 11.6261 2.57204 11.9095 2.71086L19.4658 6.41404C19.4664 6.41436 19.4671 6.41468 19.4678 6.415C19.9241 6.63685 20.31 6.9814 20.5812 7.41067C20.6942 7.5896 20.7853 7.78021 20.8534 7.97847C20.8585 7.98682 20.8635 7.99528 20.8684 8.00383C20.9821 8.20284 21.02 8.42448 20.991 8.63527C20.9968 8.70547 20.9999 8.77604 21.0002 8.84683L21.0002 8.85085L21.0002 16.7816C21.0002 18.3016 19.7487 19.5 18.2471 19.5H3.75327C2.25162 19.5 1.00017 18.3016 1.00017 16.7816V8.84732C1.00042 8.77627 1.00347 8.70543 1.00927 8.63497C0.980416 8.42427 1.01827 8.20275 1.13194 8.00383C1.13662 7.99564 1.1414 7.98754 1.14628 7.97954C1.21418 7.78129 1.30517 7.59065 1.41801 7.41168C1.68876 6.98225 2.0743 6.63744 2.53041 6.41521C2.53088 6.41498 2.53135 6.41475 2.53183 6.41452L10.0891 2.71086ZM3.00017 10.2232V16.7816C3.00017 17.1596 3.31838 17.5 3.75327 17.5H18.2471C18.682 17.5 19.0002 17.1596 19.0002 16.7816V10.2232L15.0896 12.458L16.5412 13.7541C16.9532 14.1219 16.9889 14.754 16.6211 15.166C16.2533 15.578 15.6211 15.6138 15.2092 15.2459L12.7389 13.0404C12.7272 13.0304 12.7157 13.0201 12.7043 13.0095L11.0195 11.5053C11.0119 11.5012 11.0053 11.5 11.0002 11.5C10.9951 11.5 10.9884 11.5012 10.9808 11.5053L9.296 13.0095C9.28468 13.0201 9.27315 13.0304 9.2614 13.0404L6.79118 15.2459C6.37921 15.6138 5.74706 15.578 5.37923 15.166C5.0114 14.754 5.04719 14.1219 5.45916 13.7541L6.91073 12.458L3.00017 10.2232ZM8.48385 11.0535L3.46417 8.18486L10.9689 4.50697C10.9689 4.50699 10.969 4.50694 10.9689 4.50697C10.978 4.50253 10.9885 4.5 10.9993 4.5C11.0101 4.5 11.0204 4.50246 11.0295 4.50688C11.0295 4.50685 11.0296 4.50691 11.0295 4.50688L18.5354 8.18532L13.5165 11.0535L12.3185 9.98387C12.3048 9.97167 12.2908 9.95985 12.2765 9.94841C11.9148 9.65951 11.4657 9.5 11.0002 9.5C10.5346 9.5 10.0856 9.65951 9.72381 9.94841C9.70949 9.95985 9.6955 9.97167 9.68183 9.98387L8.48385 11.0535Z" fill="#F4F4F5"/>
</svg>
