<svg width="22" height="22" viewBox="0 0 22 22" fill="none" xmlns="http://www.w3.org/2000/svg">
<mask id="path-1-inside-1_447_2624" fill="white">
<path fill-rule="evenodd" clip-rule="evenodd" d="M16 4.5H6C4.80659 4.5 4.11761 4.79864 3.7359 5.15309C3.38103 5.48261 3 6.1312 3 7.5V14.5C3 15.8688 3.38103 16.5174 3.7359 16.8469C4.11761 17.2014 4.80659 17.5 6 17.5H16C17.1934 17.5 17.8824 17.2014 18.2641 16.8469C18.619 16.5174 19 15.8688 19 14.5V7.5C19 6.1312 18.619 5.48261 18.2641 5.15309C17.8824 4.79864 17.1934 4.5 16 4.5ZM16 2.5H6C3 2.5 1 4 1 7.5V14.5C1 18 3 19.5 6 19.5H16C19 19.5 21 18 21 14.5V7.5C21 4 19 2.5 16 2.5Z"/>
<path d="M16.7112 9.45155L13.4438 12.1479C12.7548 12.7196 11.8779 13 11.001 13C10.1241 13 9.23675 12.7196 8.5582 12.1479L5.29072 9.45155C4.95667 9.17113 4.90447 8.65342 5.16545 8.30828C5.43687 7.96315 5.92752 7.89843 6.26157 8.17886L9.52905 10.8752C10.3224 11.5332 11.6691 11.5332 12.4625 10.8752L15.7299 8.17886C16.064 7.89843 16.5651 7.95236 16.8261 8.30828C17.0975 8.65342 17.0453 9.17113 16.7112 9.45155Z"/>
</mask>
<path d="M3.7359 5.15309L2.375 3.6875L2.375 3.6875L3.7359 5.15309ZM3.7359 16.8469L2.375 18.3125H2.375L3.7359 16.8469ZM18.2641 16.8469L16.9032 15.3813L16.9032 15.3813L18.2641 16.8469ZM18.2641 5.15309L16.9032 6.61867L16.9032 6.61868L18.2641 5.15309ZM16.7112 9.45155L17.9842 10.9941L17.9907 10.9888L17.9971 10.9834L16.7112 9.45155ZM13.4438 12.1479L12.1708 10.6054L12.1667 10.6087L13.4438 12.1479ZM8.5582 12.1479L9.84677 10.6184L9.839 10.6118L9.83117 10.6054L8.5582 12.1479ZM5.29072 9.45155L4.00483 10.9834L4.01127 10.9888L4.01775 10.9941L5.29072 9.45155ZM5.16545 8.30828L3.59335 7.07197L3.58162 7.08687L3.57018 7.102L5.16545 8.30828ZM6.26157 8.17886L4.97567 9.71068L4.98212 9.71608L4.9886 9.72144L6.26157 8.17886ZM9.52905 10.8752L10.8057 9.33572L10.802 9.33267L9.52905 10.8752ZM12.4625 10.8752L11.1895 9.33266L11.1858 9.33572L12.4625 10.8752ZM15.7299 8.17886L17.0029 9.72144L17.0094 9.71608L17.0158 9.71068L15.7299 8.17886ZM16.8261 8.30828L15.2132 9.49092L15.2331 9.51811L15.254 9.5446L16.8261 8.30828ZM6 6.5H16V2.5H6V6.5ZM5.0968 6.61867C4.98804 6.71967 5.11851 6.5 6 6.5V2.5C4.49467 2.5 3.24718 2.87762 2.375 3.6875L5.0968 6.61867ZM5 7.5C5 6.99663 5.07055 6.73825 5.10884 6.63556C5.14146 6.54809 5.1518 6.5676 5.0968 6.61867L2.375 3.6875C1.50408 4.49621 1 5.74281 1 7.5H5ZM5 14.5V7.5H1V14.5H5ZM5.0968 15.3813C5.1518 15.4324 5.14146 15.4519 5.10884 15.3644C5.07055 15.2618 5 15.0034 5 14.5H1C1 16.2572 1.50408 17.5038 2.375 18.3125L5.0968 15.3813ZM6 15.5C5.11851 15.5 4.98804 15.2803 5.0968 15.3813L2.375 18.3125C3.24718 19.1224 4.49467 19.5 6 19.5V15.5ZM16 15.5H6V19.5H16V15.5ZM16.9032 15.3813C17.012 15.2803 16.8815 15.5 16 15.5V19.5C17.5053 19.5 18.7528 19.1224 19.625 18.3125L16.9032 15.3813ZM17 14.5C17 15.0034 16.9294 15.2618 16.8912 15.3644C16.8585 15.4519 16.8482 15.4324 16.9032 15.3813L19.625 18.3125C20.4959 17.5038 21 16.2572 21 14.5H17ZM17 7.5V14.5H21V7.5H17ZM16.9032 6.61868C16.8482 6.5676 16.8585 6.54809 16.8912 6.63556C16.9294 6.73825 17 6.99663 17 7.5H21C21 5.74281 20.4959 4.49621 19.625 3.6875L16.9032 6.61868ZM16 6.5C16.8815 6.5 17.012 6.71967 16.9032 6.61867L19.625 3.6875C18.7528 2.87762 17.5053 2.5 16 2.5V6.5ZM6 4.5H16V0.5H6V4.5ZM3 7.5C3 6.1312 3.38103 5.48261 3.7359 5.15309C4.11761 4.79864 4.80659 4.5 6 4.5V0.5C4.19341 0.5 2.38239 0.951357 1.0141 2.22191C-0.381026 3.51739 -1 5.3688 -1 7.5H3ZM3 14.5V7.5H-1V14.5H3ZM6 17.5C4.80659 17.5 4.11761 17.2014 3.7359 16.8469C3.38103 16.5174 3 15.8688 3 14.5H-1C-1 16.6312 -0.381026 18.4826 1.0141 19.7781C2.38239 21.0486 4.19341 21.5 6 21.5V17.5ZM16 17.5H6V21.5H16V17.5ZM19 14.5C19 15.8688 18.619 16.5174 18.2641 16.8469C17.8824 17.2014 17.1934 17.5 16 17.5V21.5C17.8066 21.5 19.6176 21.0486 20.9859 19.7781C22.381 18.4826 23 16.6312 23 14.5H19ZM19 7.5V14.5H23V7.5H19ZM16 4.5C17.1934 4.5 17.8824 4.79864 18.2641 5.15309C18.619 5.48261 19 6.1312 19 7.5H23C23 5.3688 22.381 3.51739 20.9859 2.22191C19.6176 0.951357 17.8066 0.5 16 0.5V4.5ZM15.4383 7.90897L12.1708 10.6054L14.7167 13.6905L17.9842 10.9941L15.4383 7.90897ZM12.1667 10.6087C11.874 10.8516 11.4624 11 11.001 11V15C12.2934 15 13.6356 14.5875 14.7208 13.6872L12.1667 10.6087ZM11.001 11C10.5306 11 10.1179 10.8468 9.84677 10.6184L7.26963 13.6775C8.35562 14.5924 9.71758 15 11.001 15V11ZM9.83117 10.6054L6.56369 7.90897L4.01775 10.9941L7.28523 13.6905L9.83117 10.6054ZM6.57662 7.91973C6.8408 8.1415 6.96597 8.43286 6.99363 8.69171C7.02108 8.94863 6.96111 9.24956 6.76072 9.51457L3.57018 7.102C2.68036 8.27876 2.83802 10.0039 4.00483 10.9834L6.57662 7.91973ZM6.73756 9.5446C6.35545 10.0305 5.56124 10.2022 4.97567 9.71068L7.54747 6.64704C6.29379 5.59464 4.51829 5.8958 3.59335 7.07197L6.73756 9.5446ZM4.9886 9.72144L8.25608 12.4178L10.802 9.33267L7.53454 6.63628L4.9886 9.72144ZM8.25238 12.4148C9.0679 13.091 10.0788 13.3687 10.9958 13.3687C11.9127 13.3687 12.9236 13.091 13.7391 12.4148L11.1858 9.33572C11.2009 9.32322 11.1954 9.33254 11.1565 9.34532C11.1174 9.35816 11.0615 9.36869 10.9958 9.36869C10.93 9.36869 10.8741 9.35816 10.835 9.34532C10.7961 9.33254 10.7906 9.32322 10.8057 9.33572L8.25238 12.4148ZM13.7354 12.4178L17.0029 9.72144L14.457 6.63628L11.1895 9.33267L13.7354 12.4178ZM17.0158 9.71068C16.4811 10.1596 15.6487 10.0849 15.2132 9.49092L18.4389 7.12565C17.4814 5.8198 15.6469 5.63728 14.444 6.64704L17.0158 9.71068ZM15.254 9.5446C14.8644 9.04923 14.9245 8.34018 15.4253 7.91973L17.9971 10.9834C19.1661 10.0021 19.3306 8.25761 18.3982 7.07197L15.254 9.5446Z" fill="#FAFAFA" mask="url(#path-1-inside-1_447_2624)"/>
</svg>
