<svg width="21" height="22" viewBox="0 0 21 22" fill="none" xmlns="http://www.w3.org/2000/svg">
<path d="M20.8296 15.3305C20.6562 15.0333 20.1687 14.5711 18.9551 14.7912C18.2833 14.9122 17.6007 14.9673 16.9181 14.9343C14.3935 14.8242 12.1073 13.6466 10.5145 11.8306C9.10594 10.2348 8.23912 8.15465 8.22829 5.90946C8.22829 4.65479 8.46666 3.44415 8.95425 2.29954C9.43099 1.18795 9.0951 0.604643 8.85673 0.362515C8.60752 0.10938 8.02242 -0.242806 6.87389 0.241451C2.4423 2.13446 -0.299003 6.64685 0.0260523 11.4784C0.351108 16.0238 3.49331 19.9089 7.65402 21.3727C8.65086 21.7249 9.70187 21.934 10.7854 21.978C10.9588 21.989 11.1321 22 11.3055 22C14.9353 22 18.3375 20.2611 20.4829 17.3005C21.2088 16.277 21.0138 15.6276 20.8296 15.3305Z" fill="#52525B"/>
</svg>
