<svg width="18" height="17" viewBox="0 0 18 17" xmlns="http://www.w3.org/2000/svg">
    <path fill-rule="evenodd" clip-rule="evenodd" d="M8.16334 2C4.69063 2 2 4.60303 2 7.66645C2 10.7298 4.69117 13.3329 8.164 13.3329C11.6367 13.3329 14.3273 10.7299 14.3273 7.66645C14.3273 4.60375 11.6361 2 8.16334 2ZM0 7.66645C0 3.36536 3.72404 0 8.16334 0C12.6026 0 16.3273 3.36597 16.3273 7.66645C16.3273 9.41378 15.7127 11.0067 14.6852 12.2822L17.7058 15.2916C18.097 15.6814 18.0982 16.3145 17.7084 16.7058C17.3186 17.097 16.6855 17.0982 16.2942 16.7084L13.2427 13.6683C11.8394 14.7142 10.0675 15.3329 8.164 15.3329C3.72483 15.3329 0 11.9677 0 7.66645Z"/>
</svg>
