<svg width="22" height="22" viewBox="0 0 22 22" fill="none" xmlns="http://www.w3.org/2000/svg">
<path d="M11.8651 2.97006C11.8651 2.51147 11.7393 1.75964 11.0402 1.41339C10.298 1.04581 9.60709 1.46134 9.25706 1.7707L3.90225 6.56183H1.97752C0.885365 6.56183 0 7.43281 0 8.50723L9.90102e-06 13.5532C9.90102e-06 14.6276 0.885375 15.4986 1.97753 15.4986H3.90561L9.25706 20.2302C9.60827 20.5404 10.2989 20.9538 11.0401 20.5865C11.7383 20.2406 11.8651 19.4904 11.8651 19.0308V2.97006Z" fill="#D4D4D8"/>
<path d="M16.1524 3.02011L15.9143 2.95475C15.3884 2.81036 14.843 3.11277 14.6961 3.63022L14.5633 4.09868C14.4165 4.61611 14.7239 5.15264 15.2499 5.29702L15.488 5.36238C17.7533 5.98423 19.5281 8.22415 19.5281 11.0002C19.5281 13.7762 17.7533 16.0161 15.488 16.638L15.2499 16.7032C14.7239 16.8477 14.4165 17.3842 14.5633 17.9016L14.6961 18.3701C14.843 18.8875 15.3884 19.1899 15.9143 19.0456L16.1524 18.9802C19.5732 18.0412 22 14.7759 22 11.0002C22 7.22438 19.5732 3.95916 16.1524 3.02011Z" fill="#D4D4D8"/>
<path d="M15.1855 6.91708L14.9486 6.84742C14.4254 6.69354 13.8745 6.98604 13.7181 7.50074L13.5765 7.96671C13.42 8.4814 13.7174 9.02339 14.2405 9.17726L14.4774 9.2469C15.0046 9.40205 15.573 10.0391 15.573 11.0001C15.573 11.9612 15.0046 12.5982 14.4774 12.7533L14.2405 12.8229C13.7174 12.9768 13.42 13.5188 13.5765 14.0335L13.7181 14.4995C13.8745 15.0141 14.4254 15.3066 14.9486 15.1528L15.1855 15.0831C16.9326 14.5692 18.0449 12.847 18.0449 11.0001C18.0449 9.15333 16.9326 7.43095 15.1855 6.91708Z" fill="#D4D4D8"/>
</svg>
