<svg width="23" height="23" viewBox="0 0 23 23" fill="none" xmlns="http://www.w3.org/2000/svg">
<path d="M11.4583 18.75C15.4854 18.75 18.75 15.4854 18.75 11.4583C18.75 7.43126 15.4854 4.16667 11.4583 4.16667C7.43126 4.16667 4.16667 7.43126 4.16667 11.4583C4.16667 15.4854 7.43126 18.75 11.4583 18.75Z" fill="#52525B"/>
<path d="M11.4583 22.875C10.8854 22.875 10.4167 22.4479 10.4167 21.875V21.7917C10.4167 21.2188 10.8854 20.75 11.4583 20.75C12.0313 20.75 12.5 21.2188 12.5 21.7917C12.5 22.3646 12.0313 22.875 11.4583 22.875ZM18.8958 19.9375C18.625 19.9375 18.3646 19.8333 18.1563 19.6354L18.0208 19.5C17.6146 19.0937 17.6146 18.4375 18.0208 18.0312C18.4271 17.625 19.0833 17.625 19.4896 18.0312L19.625 18.1667C20.0313 18.5729 20.0313 19.2292 19.625 19.6354C19.4271 19.8333 19.1667 19.9375 18.8958 19.9375ZM4.02083 19.9375C3.75 19.9375 3.48958 19.8333 3.28125 19.6354C2.875 19.2292 2.875 18.5729 3.28125 18.1667L3.41667 18.0312C3.82292 17.625 4.47917 17.625 4.88542 18.0312C5.29167 18.4375 5.29167 19.0937 4.88542 19.5L4.75 19.6354C4.55208 19.8333 4.28125 19.9375 4.02083 19.9375ZM21.875 12.5H21.7917C21.2188 12.5 20.75 12.0313 20.75 11.4583C20.75 10.8854 21.2188 10.4167 21.7917 10.4167C22.3646 10.4167 22.875 10.8854 22.875 11.4583C22.875 12.0313 22.4479 12.5 21.875 12.5ZM1.125 12.5H1.04167C0.46875 12.5 0 12.0313 0 11.4583C0 10.8854 0.46875 10.4167 1.04167 10.4167C1.61458 10.4167 2.125 10.8854 2.125 11.4583C2.125 12.0313 1.69792 12.5 1.125 12.5ZM18.7604 5.19792C18.4896 5.19792 18.2292 5.09375 18.0208 4.89583C17.6146 4.48958 17.6146 3.83333 18.0208 3.42708L18.1563 3.29167C18.5625 2.88542 19.2188 2.88542 19.625 3.29167C20.0313 3.69792 20.0313 4.35417 19.625 4.76042L19.4896 4.89583C19.2917 5.09375 19.0313 5.19792 18.7604 5.19792ZM4.15625 5.19792C3.88542 5.19792 3.625 5.09375 3.41667 4.89583L3.28125 4.75C2.875 4.34375 2.875 3.6875 3.28125 3.28125C3.6875 2.875 4.34375 2.875 4.75 3.28125L4.88542 3.41667C5.29167 3.82292 5.29167 4.47917 4.88542 4.88542C4.6875 5.09375 4.41667 5.19792 4.15625 5.19792ZM11.4583 2.125C10.8854 2.125 10.4167 1.69792 10.4167 1.125V1.04167C10.4167 0.46875 10.8854 0 11.4583 0C12.0313 0 12.5 0.46875 12.5 1.04167C12.5 1.61458 12.0313 2.125 11.4583 2.125Z" fill="#52525B"/>
</svg>
